<svg width="100mm" height="100mm" version="1.1" viewBox="0 0 100 100" xmlns="http://www.w3.org/2000/svg">
 <g fill="none" stroke="var(--mainClr)" stroke-linecap="round">
  <path d="m82.657 16.035c1.4363 7.8845 3.8681 13.715 13.229 15.465-9.6972 2.047-11.81 8.0632-13.229 15.465-2.8096-6.8987-5.7288-13.401-14.552-15.465 9.1028-1.9349 11.793-8.5856 14.552-15.465z" stroke-linejoin="round" stroke-width="3"/>
  <g transform="translate(19.284 22.44)" stroke-width="3">
   <circle cx="23.631" cy="23.957" r="11.897" stroke-linejoin="round"/>
   <path d="m17.764 25.75c-1.1994-5.4895 2.7455-8.4563 8.1487-8.1487"/>
  </g>
  <g transform="matrix(.004562 -1.1621 1.1621 .004562 -13.662 95.557)" stroke-width="2.5816">
   <circle cx="65.352" cy="32.106" r="7.9857" stroke-linejoin="round"/>
   <path d="m62.908 29.498c3.5561-1.4905 6.21 1.0919 5.9171 4.0749"/>
  </g>
  <g transform="matrix(-.74276 .89371 -.89371 -.74276 120.05 48.812)" stroke-width="2.5816">
   <circle cx="65.352" cy="32.106" r="7.9857" stroke-linejoin="round"/>
   <path d="m62.908 29.498c3.5561-1.4905 6.21 1.0919 5.9171 4.0749"/>
  </g>
  <g stroke-width="3">
   <g transform="translate(5.3596 7.7957)">
    <g transform="translate(5.0592 2.548)" stroke-width="3">
     <path d="m66.982 52.151c9.2708 0 16.786 7.5155 16.786 16.786-1e-6 9.2708-7.5155 16.786-16.786 16.786s-16.786-7.5155-16.786-16.786c0-2.2858 0.45687-4.4649 1.2843-6.4509" stroke-linejoin="round"/>
     <path d="m62.582 79.531c10.179 1.167 16.793-6.7705 14.994-14.994"/>
    </g>
    <g transform="matrix(-.35663 1.1792 -1.1792 -.35663 123.67 -8.655)" stroke-width="2.4351">
     <circle cx="65.352" cy="32.106" r="7.9857" stroke-linejoin="round"/>
     <path d="m62.908 29.498c3.5561-1.4905 6.21 1.0919 5.9171 4.0749"/>
    </g>
   </g>
   <path d="m17.722 54.657c0.92829 6.0337 4.3583 10.732 10.408 12.071-6.2672 1.5665-9.4908 6.5995-10.408 12.264-1.8158-5.2793-4.7431-10.598-10.445-12.177 5.8831-1.4807 8.6622-6.8924 10.445-12.157z" stroke-linejoin="round"/>
   <path d="m66.369 14.774c-5.2311 0.95852-8.4249 6.0601-9.4838 11.684-1.4717-5.7777-4.8832-10.489-9.8253-11.245 4.5595-1.768 8.5513-5.938 9.8253-11.244 1.3904 5.4234 4.8743 9.2402 9.4838 10.805z" stroke-linejoin="round"/>
  </g>
 </g>
</svg>
