<svg width="100mm" height="100mm" version="1.1" viewBox="0 0 100 100" xmlns="http://www.w3.org/2000/svg">
 <g stroke-linecap="round" stroke-linejoin="round">
  <path d="m56.568 34.009c0.56232-4.3379-1.8289-9.9411 1.9914-13.211 3.7267-3.3374 6.4827 2.4126 3.335 5.1684-1.6992 5.4113-5.3858 9.2123-2.934 14.066 0.45935 0.90929 2.7892 2.4323 4.6008 1.8966 3.14 1.2026 8.8842-9.2409 11.111-14.101 0.88129-5.0816 7.232-2.9751 8.8075 0.49449 2.8134 3.8052-1.6911 7.5921-5.2784 7.1144-4.7025 0.73455-9.4966 2.1503-11.013 5.9828-1.0483 4.6831-0.5631 8.0872 2.8993 9.0348 5.015-0.81402 8.8479-6.4349 14.237-5.0762 3.579 0.69196 5.9955 5.6851 1.2215 6.8504-5.1884 1.0876-10.427-0.53307-15.458-1.7741-4.9269 1.7702-5.369 6.5716-2.9835 10.901 2.4416 4.1533 9.1874-0.48829 11.06 3.9608 0.50243 4.222-4.3233 11.295-8.2927 5.6569-3.3176-9.1463-16.88-8.8646-15.261 2.0781 0.80901 4.6963 5.4255 7.9651 6.1996 12.768-1.6273 3.3268-10.355 1.3951-8.3332-3.1463 1.4967-3.339 3.6724-7.4042 1.4278-10.963-2.4278-4.4432-6.6272-5.3674-10.143-1.2734-3.2705 3.7283-2.1526 10.081-4.4434 14.064-4.2699 2.5394-8.472-4.2304-5.4753-7.7947 2.1315-3.4735 7.4229-2.0242 9.6281-6.6268 2.6359-7.0142-2.5425-11.641-6.955-8.5524-4.6826 2.1541-10.429 1.9626-14.168 6.1347-1.8695 3.4538-6.804 6.8824-9.3125 2.0658-2.6224-3.0959-0.76755-9.3451 3.7966-7.5605 9.4838 1.062 18.198-0.67422 21.193-4.5495 2.3073-2.9847 0.72644-8.3885-5.7553-10.221-3.4521-0.33717-7.0291 0.09284-10.368-0.96456-4.333-1.954-2.8908-8.8148 0.93632-10.474 3.1121-1.6094 6.7898-0.12518 8.8356 2.5916 4.4462 7.4481 14.119 9.0089 13.542 0.57505-1.6458-6.1418-3.6945-12.573-8.4027-16.904-2.878-2.6563-2.5161-8.727 1.6181-9.6803 4.1252-0.57008 6.1787 4.7444 5.8872 8.3727 0.45306 6.0599-1.0958 12.346 0.89743 18.211 3.8583 5.078 9.1626 4.2472 11.138-2.8376 0.28089-0.71604 0.33016-1.5154 0.2138-2.2754z" fill="var(--mainClr)" stroke="var(--mainClr)" stroke-width="5.0335"/>
  <g fill="var(--mainClr)" stroke="var(--mainClr)" stroke-width="5">
   <path d="m25.192 22.224c0.62952 2.433-4.7271 2.0495-8.2434 2.44-2.4626 0.2735-4.5504-1.7735-4.2866-4.946 0.20824-2.5045 2.6829-4.946 5.3417-4.946s6.265 3.8838 7.1883 7.452z"/>
   <path d="m82.17 87.644c1.8465 2.6174-1.1039 5.9557-3.5612 6.265-4.1913 0.52758-5.4077-4.0433-5.4077-6.265s2.0077-4.0228 4.4844-4.0228 3.2037 2.2074 4.4844 4.0228z"/>
   <path d="m82.434 13.717c-0.26379 2.6125-2.1062 4.2206-3.8909 4.2206-1.7847 0-5.8693-0.42112-4.2866-4.2206 0.70027-1.6811 2.5034-3.3701 4.2866-3.2974 3.2355 0.1319 4.0738 1.4855 3.8909 3.2974z"/>
   <path d="m22.818 86.457c0 1.9303-1.6515 5.6055-3.3633 5.6055s-4.8142-2.0924-4.8142-4.0228 2.4429-3.4952 4.1547-3.4952 4.0228-0.01788 4.0228 1.9125z"/>
   <path d="m15.564 51.505c-1e-6 1.7847-3.7086 4.2866-6.3309 4.2866-2.6224 0-4.2206-3.0295-4.2206-4.8142-2e-7 -1.7847-0.11636-4.2866 4.7482-3.2314 2.5628 0.55588 5.8034 1.9743 5.8034 3.759z"/>
   <ellipse cx="91.139" cy="63.639" rx="4.8801" ry="3.759"/>
   <path d="m57.11 7.9137c0 1.8211-2.9114 5.5396-4.5504 5.5396-1.639 1e-6 -1.253-1.872-2.9676-4.4844-0.99924-1.5225 1.3287-3.2974 2.9676-3.2974s4.5504 0.42112 4.5504 2.2422z"/>
  </g>
 </g>
</svg>
