<svg width="100mm" height="100mm" version="1.1" viewBox="0 0 100 100" xmlns="http://www.w3.org/2000/svg">
 <g fill="var(--mainClr)" stroke="var(--mainClr)">
  <path d="m7.9375 44.979c28.255 10.846 56.477 10.709 84.667 0-0.04843 19.958 2.0059 36.437-18.468 36.896h-50.271c-18.328-1.7665-14.817-18.826-15.927-36.896z" fill="none" stroke-width="5"/>
  <path d="m8.2 43.2c36.391-7.8372 60.154-6.4846 83.8-0.1" fill="none" stroke-linecap="square" stroke-linejoin="round" stroke-width="5"/>
  <path d="m28.93 50.127c-6.1869-1.8009-0.42766-7.723 2.2274-9.8334 2.6551-2.1104 4.5938-2.8399 7.7959-3.7821 3.2021-0.9422 7.3513-1.5402 11.137-1.5128 3.4224 0.02473 6.7822 0.50037 10.023 1.5128 3.2411 1.0125 6.3419 2.3684 8.9096 4.5385 2.5677 2.1701 8.0726 6.052 2.2274 8.3205-5.8452 2.2686-13.988 2.9017-21.16 3.0257-7.1721 0.12399-14.973-0.46835-21.16-2.2692z" stroke-linejoin="round" stroke-width="3.469"/>
 </g>
</svg>
