<svg width="100mm" height="100mm" version="1.1" viewBox="0 0 100 100" xmlns="http://www.w3.org/2000/svg">
 <g fill="none" stroke="var(--mainClr)" stroke-linecap="round">
  <path d="m48.647 7.4982c-0.24953 17.245 16.527 21.269 23.409 28.53 19.983 21.228 1.0018 49.729-18.654 49.378-9.7159-0.17339-19.276-18.39-27.249-14.996-10.86 4.6226-7.681 22.312-7.681 22.312" stroke-width="5"/>
  <path d="m10.79 92.172c0.59721-21.499 6.9519-32.257 16.094-33.102 0 0 32.004 3.2919 20.666-27.615 0 0-8.4126-16.825-6.5837-23.592" stroke-width="5"/>
  <path d="m21.763 49.195c-1.1283-4.2473-4.9077-9.5914 2.1946-6.218 12.619 2.2875-1.422-13.907 15.728-4.0234" stroke-width="3"/>
  <path d="m90.08 68.99s8.1996 17.638-2.1946 13.167c-12.801-5.7622 5.2625 17.747-18.288 8.4126" stroke-width="3"/>
 </g>
</svg>
