<svg width="100mm" height="100mm" version="1.1" viewBox="0 0 100 100" xmlns="http://www.w3.org/2000/svg">
 <defs>
  <clipPath>
   <path class="powerclip" d="m-2.6427 26.5h104.14v38.345h-104.14zm34.643 25.5h2v-6l4-2 16 4 2-2-20-6-6 4z" stroke="var(--mainClr)" stroke-width=".26458px"/>
  </clipPath>
 </defs>
 <path d="m5.8127 51.276 13.253-8.7212c4.5717-2.2859 16.64-2.5397 23.495-3.3049l25.567 8.1919c8.4632-2.3231 26.238-8.0634 26.27-6.5423-2.5577 5.2236-4.1219 13.946-8.0906 14.734-8.0255 0.52956-12.957 1.091-18.529 3.6934-1.6101 1.4075-7.4206 2.7081-10.714-0.63668-2.1805-2.2146-26.247-8.2252-20.376-8.2252 7.5726 1.8167 17.324 5.1749 23.281 3.761v-3.761c-9.3727-3.7619-12.228-4.4695-23.006-7.9066-1.9996-0.27865-4.536 0.15477-6.4804 2.0869-1.5247 1.5151-1.4186 1.906-1.6709 2.8639-2.5336-0.45605-4.0425-0.48983-7.1729-0.48983 0.26493-0.58461 0.17721-1.3506-2.304-0.62221-5.4282 1.5935-15.354 8.8333-13.522 4.8786z" fill="var(--mainClr)" stroke="var(--mainClr)" stroke-width="5.715"/>
</svg>
