<?xml version="1.0" encoding="UTF-8" standalone="no"?>
<!-- Created with Inkscape (http://www.inkscape.org/) -->

<svg
   width="100mm"
   height="100mm"
   viewBox="0 0 100 100"
   version="1.1"
   id="svg5"
   inkscape:version="1.1.2 (b8e25be833, 2022-02-05)"
   sodipodi:docname="dirtiness.svg"
   xmlns:inkscape="http://www.inkscape.org/namespaces/inkscape"
   xmlns:sodipodi="http://sodipodi.sourceforge.net/DTD/sodipodi-0.dtd"
   xmlns="http://www.w3.org/2000/svg"
   xmlns:svg="http://www.w3.org/2000/svg">
  <defs
     id="defs9" />
  <sodipodi:namedview
     id="namedview7"
     pagecolor="#505050"
     bordercolor="#ffffff"
     borderopacity="1"
     inkscape:pageshadow="0"
     inkscape:pageopacity="0"
     inkscape:pagecheckerboard="1"
     inkscape:document-units="mm"
     showgrid="false"
     inkscape:zoom="2.0060209"
     inkscape:cx="182.69999"
     inkscape:cy="187.68498"
     inkscape:window-width="1278"
     inkscape:window-height="991"
     inkscape:window-x="-8"
     inkscape:window-y="0"
     inkscape:window-maximized="0"
     inkscape:current-layer="svg5"
     inkscape:snap-global="false" />
  <path
     style="fill:#000000;fill-opacity:1;stroke:#000000;stroke-width:5.0335;stroke-linecap:round;stroke-linejoin:round;stroke-miterlimit:4;stroke-dasharray:none;stroke-opacity:1"
     d="m 56.568276,34.008837 c 0.562319,-4.337886 -1.828904,-9.941086 1.991432,-13.211343 3.726701,-3.337375 6.482656,2.412636 3.335039,5.168376 -1.699247,5.41126 -5.385839,9.212254 -2.934008,14.065657 0.459353,0.909289 2.789213,2.432301 4.600787,1.896579 3.139969,1.20258 8.884203,-9.240895 11.11103,-14.101432 0.881286,-5.081636 7.231951,-2.975068 8.807483,0.494488 2.813447,3.805199 -1.691128,7.59208 -5.278424,7.114436 -4.702542,0.734549 -9.496579,2.150327 -11.013164,5.982805 -1.048323,4.683148 -0.563098,8.087198 2.89934,9.034791 5.015016,-0.81402 8.847945,-6.434945 14.236896,-5.076242 3.579008,0.691963 5.99549,5.685113 1.221501,6.850359 -5.188354,1.08757 -10.426615,-0.533071 -15.458397,-1.774117 -4.926863,1.770225 -5.368987,6.571594 -2.983491,10.901014 2.441641,4.153278 9.187417,-0.488286 11.059941,3.960818 0.502427,4.22195 -4.323304,11.294864 -8.292731,5.656911 -3.317583,-9.146263 -16.879807,-8.864637 -15.26056,2.078067 0.809008,4.696255 5.425503,7.965106 6.199574,12.767635 -1.627346,3.32679 -10.355417,1.395137 -8.333164,-3.146297 1.496737,-3.338997 3.672416,-7.404242 1.427752,-10.963495 -2.427794,-4.443226 -6.62724,-5.36736 -10.143029,-1.273393 -3.270482,3.72829 -2.152618,10.081023 -4.443381,14.064188 -4.269866,2.539402 -8.471994,-4.230447 -5.475308,-7.794667 2.131539,-3.473539 7.422922,-2.024206 9.628118,-6.626827 2.635887,-7.014235 -2.542485,-11.640953 -6.955035,-8.552376 -4.682551,2.154148 -10.428587,1.962637 -14.168464,6.134689 -1.869472,3.453823 -6.804037,6.882427 -9.312485,2.065834 -2.622358,-3.095925 -0.767553,-9.345061 3.796636,-7.560497 9.483826,1.062039 18.197623,-0.674217 21.19337,-4.549456 2.307296,-2.984674 0.726443,-8.388496 -5.755317,-10.221148 -3.452144,-0.337172 -7.029091,0.09284 -10.368218,-0.964562 -4.332962,-1.954013 -2.890796,-8.814847 0.936315,-10.474471 3.11206,-1.609448 6.789846,-0.125176 8.835596,2.591628 4.446242,7.448144 14.119374,9.008906 13.54224,0.57505 -1.645843,-6.141814 -3.694504,-12.573328 -8.402714,-16.903616 -2.87795,-2.656274 -2.516133,-8.726968 1.618091,-9.680345 4.125174,-0.570077 6.17869,4.744364 5.887192,8.372736 0.453059,6.059934 -1.095831,12.346347 0.897431,18.211225 3.858325,5.07804 9.162595,4.247206 11.138325,-2.837618 0.280893,-0.716045 0.330155,-1.51545 0.213801,-2.275384 z"
     id="path3163"
     sodipodi:nodetypes="cccsccccccccccscccccccccccccscccccccsccc" />
  <path
     id="path22805"
     style="stroke-width:4.99999;stroke-linecap:round;stroke-linejoin:round"
     d="m 25.191868,22.224239 c 0.629516,2.432973 -4.727134,2.04953 -8.243412,2.44005 -2.462611,0.2735 -4.550363,-1.773478 -4.286574,-4.946047 0.208238,-2.504454 2.682947,-4.946048 5.341731,-4.946048 2.658784,0 6.264993,3.883792 7.188255,7.452045 z"
     sodipodi:nodetypes="sssss" />
  <path
     id="path22807"
     style="stroke-width:4.99999;stroke-linecap:round;stroke-linejoin:round"
     d="m 82.170337,87.643959 c 1.846524,2.617406 -1.10387,5.955684 -3.561154,6.264993 -4.191305,0.527579 -5.407679,-4.04327 -5.407679,-6.264993 0,-2.221723 2.007742,-4.022785 4.484417,-4.022785 2.476675,0 3.203675,2.207364 4.484416,4.022785 z"
     sodipodi:nodetypes="sssss" />
  <path
     id="path22809"
     style="stroke-width:4.99999;stroke-linecap:round;stroke-linejoin:round"
     d="m 82.434126,13.717038 c -0.263789,2.612452 -2.106228,4.220627 -3.89089,4.220627 -1.784663,0 -5.86931,-0.421123 -4.286575,-4.220627 0.70027,-1.681063 2.503393,-3.370056 4.286575,-3.297365 3.235503,0.131895 4.073841,1.485494 3.89089,3.297365 z"
     sodipodi:nodetypes="sssss" />
  <path
     id="path22811"
     style="stroke-width:4.99999;stroke-linecap:round;stroke-linejoin:round"
     d="m 22.817766,86.456907 c 0,1.930349 -1.651493,5.60552 -3.363312,5.60552 -1.711819,0 -4.814153,-2.092436 -4.814153,-4.022785 0,-1.930349 2.442861,-3.495206 4.15468,-3.495206 1.711819,0 4.022785,-0.01788 4.022785,1.912471 z"
     sodipodi:nodetypes="sssss" />
  <path
     id="path22813"
     style="stroke-width:4.99999;stroke-linecap:round;stroke-linejoin:round"
     d="m 15.563563,51.504839 c -1e-6,1.784663 -3.70858,4.286574 -6.3309409,4.286574 -2.6223612,0 -4.2206267,-3.02949 -4.2206273,-4.814152 -2e-7,-1.784663 -0.1163643,-4.286575 4.7482057,-3.231418 2.5627675,0.555881 5.8033625,1.974334 5.8033625,3.758996 z"
     sodipodi:nodetypes="sssss" />
  <ellipse
     style="fill:#000000;fill-opacity:1;stroke-width:4.99999;stroke-linecap:round;stroke-linejoin:round;stroke-miterlimit:4;stroke-dasharray:none"
     id="path22815"
     cx="91.139168"
     cy="63.639145"
     rx="4.8801003"
     ry="3.758996" />
  <path
     id="path22817"
     style="stroke-width:4.99999;stroke-linecap:round;stroke-linejoin:round"
     d="m 57.110361,7.9136762 c 0,1.8210842 -2.911387,5.5395728 -4.550363,5.5395728 -1.638976,1e-6 -1.252999,-1.871964 -2.967629,-4.484416 -0.999235,-1.5224584 1.328653,-3.2973655 2.967629,-3.2973652 1.638976,3e-7 4.550363,0.4211241 4.550363,2.2422084 z"
     sodipodi:nodetypes="sssss" />
</svg>
