<svg width="100mm" height="100mm" version="1.1" viewBox="0 0 100 100" xmlns="http://www.w3.org/2000/svg">
 <defs>
  <clipPath id="clipPath1588">
   <path d="m8 60 14-16 18 8 16-12 14 8 14-10 12 8-2 8-10-8-14 8-14-6-14 12-18-8-12 10z" display="none" fill="var(--mainClr)" stroke="var(--mainClr)" stroke-width=".26458px"/>
   <path class="powerclip" d="m0.92264 0.1169h98.155v99.766h-98.155zm7.0774 59.883 4 2 12-10 18 8 14-12 14 6 14-8 10 8 2-8-12-8-14 10-14-8-16 12-18-8z" fill="var(--mainClr)" stroke="var(--mainClr)" stroke-width=".26458px"/>
  </clipPath>
 </defs>
 <path d="m24.609 7.6979c11.294 0 26.458 25.381 26.458 25.381s13.192-25.381 23.812-25.381c21.167 0 17.71 26.349 13.229 39.482-10.583 31.022-37.042 45.122-37.042 45.122s-29.104-16.921-39.688-45.122c-4.8693-12.975-5.2917-39.482 13.229-39.482z" clip-path="url(#clipPath1588)" fill="var(--mainClr)" stroke="var(--mainClr)" stroke-linejoin="round" stroke-width="5.1621"/>
</svg>
